<svg xmlns="http://www.w3.org/2000/svg" viewBox="0 0 500 420" width="100%" height="100%">
  <defs>
    <linearGradient id="mobasherGradient" x1="0%" y1="0%" x2="100%" y2="100%">
      <stop offset="0%" stop-color="#0b2395" />
      <stop offset="40%" stop-color="#123bad" />
      <stop offset="75%" stop-color="#00809d" />
      <stop offset="100%" stop-color="#00aa9f" />
    </linearGradient>
  </defs>

  <g transform="translate(10, 10)">
    <!-- 3 Top Dots -->
    <circle cx="210" cy="55" r="23" fill="url(#mobasherGradient)" />
    <circle cx="270" cy="55" r="23" fill="url(#mobasherGradient)" />
    <circle cx="330" cy="55" r="23" fill="url(#mobasherGradient)" />

    <!-- 1 Bottom Dot -->
    <circle cx="210" cy="365" r="23" fill="url(#mobasherGradient)" />

    <!-- Main Calligraphy Vector Path -->
    <path
      d="M 45 275
         C 38 220, 70 165, 155 165
         L 415 165
         C 455 165, 475 145, 475 115
         C 475 98, 460 88, 445 88
         C 425 88, 400 115, 368 115
         L 155 115
         C 88 115, 40 160, 40 230
         L 40 270
         C 40 310, 70 325, 105 325
         C 145 325, 195 240, 240 175
         C 270 125, 315 125, 360 125
         C 430 125, 475 175, 475 250
         C 475 320, 415 338, 365 328
         C 315 318, 260 225, 215 225
         C 190 225, 170 250, 150 280
         C 120 330, 80 375, 40 375
         C 20 375, 10 350, 10 320
         C 10 280, 30 265, 50 265
         C 65 265, 75 275, 75 288
         C 75 300, 65 310, 52 310
         C 46 310, 42 305, 42 295
         Z"
      fill="url(#mobasherGradient)"
    />
  </g>
</svg>
